<svg xmlns="http://www.w3.org/2000/svg" width="50" height="50" viewBox="0 0 50 50">
    <path fill="#4F4F58" fill-rule="evenodd" d="M9.04 44.265a8.326 8.326 0 0 0 6.342-3.982 9.885 9.885 0 0 0 6.215 2.83v5.41H9.04v-4.258zM1.5 36.032c0-2.948 4.425-11.257 6.786-15.367 1.06 1.85 3.21 5.708 4.807 9.244-.415 1.304-.666 2.451-.666 3.321a9.85 9.85 0 0 0 1.923 5.845 6.828 6.828 0 0 1-5.31 3.69V41.47l3.483-2.919a.749.749 0 1 0-.963-1.15l-2.52 2.112V37.33a.75.75 0 0 0-1.5 0v2.183L5.016 37.4a.749.749 0 1 0-.963 1.15l3.485 2.92v1.306C4.147 42.402 1.5 39.521 1.5 36.032zm20.847-21.816c1.511 2.63 5.292 9.387 7.23 14.422.005.02.014.036.021.055.706 1.842 1.17 3.456 1.17 4.537 0 4.39-3.379 8-7.67 8.382V39.77l4.295-3.6a.749.749 0 1 0-.962-1.15l-3.334 2.793v-3.004a.75.75 0 0 0-1.5 0v3.004l-3.334-2.794a.75.75 0 0 0-.963 1.15l4.297 3.601v1.843c-4.292-.382-7.67-3.993-7.67-8.382 0-4.038 6.347-15.41 8.42-19.014zM33.7 23.721c2.162 3.772 6.116 11.217 6.116 13.864 0 3.118-2.347 5.695-5.367 6.067v-.904l3.15-2.638a.751.751 0 0 0-.963-1.15L34.45 40.79v-2.024a.75.75 0 0 0-1.5 0v2.026l-2.188-1.834a.787.787 0 0 0-.236-.128 9.86 9.86 0 0 0 1.742-5.6c0-1.176-.455-2.85-1.16-4.746a128.09 128.09 0 0 1 2.593-4.764zm9.746 13.302c1.361 1.145 3.116 3.008 3.116 4.16a3.12 3.12 0 0 1-2.37 3.02v-.076a.75.75 0 0 0-1.5 0v.076a3.116 3.116 0 0 1-2.358-2.89 7.57 7.57 0 0 0 .726-1.806h.002c.73-1.013 1.788-1.975 2.384-2.484zm-8.997 8.141a7.594 7.594 0 0 0 4.707-2.277 4.619 4.619 0 0 0 3.536 2.841v2.795H34.45v-3.359zm-4.802-5.243a.735.735 0 0 0 .151.19l3.151 2.64v.9a6.081 6.081 0 0 1-4.36-2.72 9.9 9.9 0 0 0 1.058-1.01zm-6.55 3.191a9.83 9.83 0 0 0 4.255-1.333 7.57 7.57 0 0 0 5.597 3.372v3.372h-9.852v-5.41zm25.635 5.411h-4.54v-2.795c2.19-.36 3.87-2.254 3.87-4.545 0-2.436-3.735-5.392-4.162-5.72a.747.747 0 0 0-.916 0c-.05.038-.84.655-1.714 1.526-.56-4.38-6.656-14.687-6.927-15.144-.27-.455-1.02-.455-1.289 0-.016.024-1.26 2.125-2.678 4.8-2.634-6.27-7.118-13.856-7.385-14.304-.269-.455-1.019-.455-1.289 0-.285.48-5.378 9.09-7.893 15.552-2.16-4.515-4.846-9.052-4.876-9.102-.27-.455-1.02-.455-1.29 0C7.331 19.317 0 31.712 0 36.032c0 4.317 3.318 7.87 7.54 8.25v4.241H2.285a.75.75 0 0 0 0 1.5h46.446a.75.75 0 0 0 0-1.5z"/>
</svg>
