<svg xmlns="http://www.w3.org/2000/svg" width="50" height="50" viewBox="0 0 50 50">
    <path fill="#4F4F58" fill-rule="evenodd" d="M33.377 39.663c-2.67 0-5.166-.733-7.32-1.991 3.713-2.948 6.105-7.491 6.105-12.59 0-5.1-2.392-9.642-6.106-12.59a14.472 14.472 0 0 1 7.321-1.991c8.04 0 14.581 6.54 14.581 14.58s-6.54 14.582-14.58 14.582zm-13.665-19.62a14.623 14.623 0 0 1 5.017-6.674c.336.249.662.51.975.787l-5.992 5.887zm-.846 6.438a14.69 14.69 0 0 1-.07-1.4c0-.758.076-1.497.187-2.225.005-.004.011-.005.015-.008l7.778-7.643c.6.647 1.14 1.347 1.614 2.095l-9.524 9.18zm1.233 4.593a14.393 14.393 0 0 1-.94-2.8c.008-.005.017-.007.025-.013l9.964-9.61c.402.816.73 1.669.976 2.56L20.1 31.074zm9.815-1.414a14.626 14.626 0 0 1-5.185 7.134 14.492 14.492 0 0 1-1.142-.94l6.327-6.194zm.748-4.578c0 .638-.056 1.263-.136 1.88l-7.996 7.83a14.721 14.721 0 0 1-1.706-2.327l9.665-9.51c.103.697.173 1.402.173 2.127zm-14.58 14.58c-8.04 0-14.582-6.54-14.582-14.58S8.041 10.5 16.081 10.5c2.67 0 5.166.733 7.32 1.99-3.712 2.949-6.105 7.49-6.105 12.59s2.393 9.643 6.105 12.59a14.465 14.465 0 0 1-7.32 1.992zM33.376 9.002c-3.185 0-6.147.94-8.648 2.545A15.96 15.96 0 0 0 16.081 9C7.214 9 .001 16.215.001 25.08c0 8.868 7.213 16.082 16.08 16.082a15.96 15.96 0 0 0 8.648-2.546 15.962 15.962 0 0 0 8.648 2.546c8.867 0 16.081-7.214 16.081-16.081C49.458 16.215 42.244 9 33.378 9z"/>
</svg>
