<svg xmlns="http://www.w3.org/2000/svg" width="50" height="50" viewBox="0 0 50 50">
    <path fill="#4F4F58" fill-rule="evenodd" d="M11.453 16.18c0-7.544 5.981-13.68 13.333-13.68 7.35 0 13.33 6.136 13.33 13.68s-5.98 13.681-13.33 13.681c-7.352 0-13.333-6.137-13.333-13.68m38.384 31.53c-3.523-9.2-11.45-15.55-20.817-16.988 6.12-1.87 10.595-7.678 10.595-14.543C39.615 7.81 32.963 1 24.786 1 16.607 1 9.953 7.81 9.953 16.18c0 6.913 4.543 12.75 10.73 14.577C11.396 32.251 3.55 38.572.05 47.71a.75.75 0 1 0 1.4.537c3.801-9.923 13.023-16.336 23.493-16.336 10.471 0 19.693 6.413 23.493 16.336a.752.752 0 0 0 .97.432.75.75 0 0 0 .431-.969"/>
</svg>
