<svg xmlns="http://www.w3.org/2000/svg" width="50" height="50" viewBox="0 0 50 50">
    <path fill="#4F4F58" fill-rule="evenodd" d="M39.606 34.47c-4.501 0-8.205-3.475-8.571-7.883 2.467-.036 10.946-.007 17.14.029-.379 4.394-4.078 7.855-8.569 7.855zm.004-29.89l8.237 20.46H31.372L39.61 4.58zM25.28 3.426a.964.964 0 0 1 0-1.925.964.964 0 0 1 0 1.925zM2.866 25.04l8.238-20.46 8.238 20.46H2.866zm8.235 9.43c-4.502 0-8.206-3.476-8.572-7.884 2.467-.036 10.946-.007 17.14.029-.378 4.394-4.077 7.855-8.568 7.855zM49.694 25.8a.73.73 0 0 0-.041-.29L40.305 2.294a.613.613 0 0 0-.169-.23.749.749 0 0 0-.166-.112.734.734 0 0 0-.36-.104H27.655A2.462 2.462 0 0 0 25.28 0c-1.144 0-2.1.788-2.374 1.847H11.064a.74.74 0 0 0-.722.612L1.06 25.51c-.024.062-.018.126-.026.19-.014.056-.034.11-.034.169 0 5.57 4.531 10.1 10.101 10.1 5.569 0 10.101-4.53 10.101-10.1 0-.02-.009-.035-.011-.053a.727.727 0 0 0-.043-.306L12.224 3.347h10.765a2.459 2.459 0 0 0 1.517 1.44v43.1h-8.893a.75.75 0 0 0 0 1.5h19.286a.75.75 0 0 0 0-1.5h-8.893V4.803a2.463 2.463 0 0 0 1.565-1.456h10.92L29.566 25.51c-.024.062-.019.126-.026.19-.014.056-.035.11-.035.169 0 5.57 4.532 10.1 10.101 10.1 5.57 0 10.102-4.53 10.102-10.1 0-.024-.012-.045-.014-.07z"/>
</svg>
