<svg xmlns="http://www.w3.org/2000/svg" width="50" height="50" viewBox="0 0 50 50">
    <path fill="#4F4F58" fill-rule="evenodd" d="M47.865 28.528a.897.897 0 0 1-.896.896h-2.378a.747.747 0 0 0-.726.946v11.456c0 .468-.38.848-.848.848H35.61a.848.848 0 0 1-.848-.848V30.292a.732.732 0 0 0-.045-.225c.01-1.534.023-3.936.02-5.491v-.001a6.398 6.398 0 0 0-1.22-3.772 10.983 10.983 0 0 0-1.924-2.021c.02-.028.037-.06.057-.087a9.54 9.54 0 0 1 7.684-3.911c3.26 0 6.31 1.783 7.956 4.653.376.656.575 1.462.575 2.329v6.762zm-14.658 2.99a.897.897 0 0 1-.896.897H29.92a.75.75 0 0 0-.727.945v11.457c0 .468-.38.848-.848.848h-7.407a.847.847 0 0 1-.846-.848V33.354a.75.75 0 0 0-.727-.939h-2.378a.89.89 0 0 1-.884-.838v-1.285c0-.021-.01-.038-.01-.06v-5.475c0-.868.198-1.673.574-2.33 1.647-2.87 4.695-4.652 7.955-4.652a9.536 9.536 0 0 1 7.683 3.91c.607.833.928 1.833.932 2.896.007 2.426-.029 6.93-.029 6.938zM13.755 42.675H6.347a.848.848 0 0 1-.847-.848V30.363a.747.747 0 0 0-.727-.939H2.395a.896.896 0 0 1-.895-.896v-6.762c0-.867.2-1.673.575-2.33 1.646-2.87 4.695-4.652 7.956-4.652a9.54 9.54 0 0 1 7.684 3.912c.026.036.048.075.074.112a10.776 10.776 0 0 0-2.424 2.873c-.507.883-.774 1.948-.774 3.076v6.762c0 .039.01.076.011.115v10.192c0 .468-.38.848-.847.848zM5.318 8.287c0-2.64 2.087-4.786 4.652-4.786s4.652 2.147 4.652 4.786c0 2.638-2.087 4.786-4.652 4.786s-4.652-2.148-4.652-4.786zm14.59 2.99c0-2.638 2.087-4.785 4.652-4.785s4.652 2.147 4.652 4.786-2.087 4.786-4.652 4.786-4.652-2.147-4.652-4.786zm14.835-2.99c0-2.64 2.087-4.786 4.651-4.786 2.566 0 4.653 2.147 4.653 4.786 0 2.638-2.087 4.786-4.653 4.786-2.564 0-4.65-2.148-4.65-4.786zM48.591 18.69a10.784 10.784 0 0 0-6.184-4.93 6.31 6.31 0 0 0 3.14-5.474C45.547 4.82 42.787 2 39.394 2c-3.39 0-6.15 2.82-6.15 6.286a6.308 6.308 0 0 0 3.08 5.437 11.043 11.043 0 0 0-5.888 4.09c-.024.033-.045.07-.069.105a11.097 11.097 0 0 0-2.735-1.204 6.309 6.309 0 0 0 3.08-5.437c0-3.466-2.76-6.286-6.152-6.286-3.392 0-6.152 2.82-6.152 6.286a6.31 6.31 0 0 0 3.14 5.475c-.9.276-1.754.67-2.55 1.169-.025-.037-.046-.075-.07-.11a11.03 11.03 0 0 0-5.886-4.088 6.308 6.308 0 0 0 3.08-5.437C16.122 4.82 13.362 2 9.97 2 6.578 2 3.818 4.82 3.818 8.287a6.308 6.308 0 0 0 3.14 5.474 10.775 10.775 0 0 0-6.184 4.93C.267 19.574 0 20.637 0 21.766v6.762a2.398 2.398 0 0 0 2.395 2.396H4v10.902a2.35 2.35 0 0 0 2.347 2.348h7.408a2.35 2.35 0 0 0 2.347-2.348V33.74c.274.109.572.174.884.174h1.605v10.902a2.35 2.35 0 0 0 2.346 2.348h7.407a2.35 2.35 0 0 0 2.348-2.348V33.915h1.62c.337 0 .658-.073.95-.2v8.11a2.35 2.35 0 0 0 2.348 2.349h7.407a2.35 2.35 0 0 0 2.348-2.348V30.924h1.604a2.399 2.399 0 0 0 2.396-2.396v-6.762c0-1.13-.268-2.192-.774-3.075z"/>
</svg>
