<svg xmlns="http://www.w3.org/2000/svg" width="50" height="50" viewBox="0 0 50 50">
    <g fill="#4F4F58" fill-rule="evenodd">
        <path d="M47.078 37.63l-45.525-.305c.156-1.829.738-6.632 2.765-11.419 3.377-7.975 8.979-12.145 16.648-12.393 7.707-.251 13.508 3.011 17.313 9.684 2.88 5.052 3.47 10.27 3.475 10.323a.755.755 0 0 0 .395.583l5.516 2.912-.587.615zm2.166-1.478l-6.054-3.196c-.454-2.995-4.021-21.502-22.273-20.943C1.156 12.653.01 37.789 0 38.043a.75.75 0 0 0 .744.777l46.646.312h.005a.752.752 0 0 0 .542-.231l1.497-1.567a.751.751 0 0 0-.191-1.182z"/>
        <path d="M25.494 20.913a19.704 19.704 0 0 0-15.176.238.751.751 0 0 0 .596 1.377 18.195 18.195 0 0 1 14.027-.22 18.212 18.212 0 0 1 10.069 9.77.749.749 0 0 0 .986.39.751.751 0 0 0 .39-.987 19.7 19.7 0 0 0-10.892-10.568"/>
    </g>
</svg>
